<?xml version="1.0" encoding="UTF-8"?><svg xmlns="http://www.w3.org/2000/svg" xmlns:xlink="http://www.w3.org/1999/xlink" width="375" zoomAndPan="magnify" viewBox="0 0 375 374.999991" height="374.999991" preserveAspectRatio="xMidYMid meet" version="1.0"><defs><clipPath id="clip-0"><path d="M 0 22.5 L 375 22.5 L 375 337 L 0 337 Z M 0 22.5 " clip-rule="nonzero"/></clipPath></defs><g clip-path="url(#clip-0)"><path fill="rgb(38.819885%, 21.179199%, 36.079407%)" d="M 121.015625 238.953125 C 128.039062 238.753906 133.933594 244.246094 134.132812 251.238281 C 134.199219 252.636719 134 254.035156 133.601562 255.367188 L 131.003906 263.753906 C 130.605469 265.121094 131.335938 266.519531 132.703125 266.953125 C 132.933594 267.019531 133.199219 267.050781 133.433594 267.050781 L 241.566406 267.050781 C 242.964844 267.050781 244.097656 265.917969 244.097656 264.519531 C 244.097656 264.253906 244.0625 264.023438 243.996094 263.753906 L 241.398438 255.367188 C 239.433594 248.640625 243.296875 241.582031 250.054688 239.617188 C 256.648438 237.6875 263.570312 241.382812 265.667969 247.910156 L 272.992188 271.679688 C 275.757812 280.601562 270.730469 290.089844 261.808594 292.851562 C 260.175781 293.351562 258.511719 293.585938 256.8125 293.585938 L 118.1875 293.585938 C 108.832031 293.585938 101.242188 286.027344 101.242188 276.640625 C 101.242188 274.976562 101.507812 273.277344 102.007812 271.679688 L 109.296875 247.910156 C 110.929688 242.75 115.621094 239.152344 121.015625 238.953125 Z M 84.429688 48.15625 L 290.570312 48.15625 L 333.21875 180.660156 L 41.78125 180.660156 Z M 74.808594 22.722656 L 23.96875 180.660156 L 0 180.660156 L 19.542969 336.996094 L 355.457031 336.996094 L 375 180.660156 L 351.03125 180.660156 L 300.191406 22.722656 L 74.808594 22.722656 " fill-opacity="1" fill-rule="nonzero"/></g></svg>